<svg id="Layer_1" data-name="Layer 1" xmlns="http://www.w3.org/2000/svg" viewBox="0 0 284.39 284.39" width="316.227766017" height="316.227766017"><title>PM_vert_black</title><path d="M200.66,103a15.76,15.76,0,0,0-25.29-1.75L169.72,97c1.41-.58,4.35-1.88,4.55-2.67.12-.48-1.39-.81-3.69-1l10.56-9.64a.23.23,0,0,0,.05-.27l-2.69-5.07a.2.2,0,0,0-.32,0l-11,10c-3.29,0-9.13.44-10.81-.62-2.69-1.69-3-4.18-4-5.07s-2.11-1-2.35-1.76a.07.07,0,0,1,0-.1c.52-.13,3.41-.94,4.07-3s-.69-4.73-.91-5.16a.08.08,0,0,1,0-.1l3.07-2.68a.09.09,0,0,0-.07-.15l-4.5.55a.11.11,0,0,1-.08,0c-.23-.32-2-2.47-5.7-1-4.3,1.76-3.51,5.43-3.51,5.43.57,3.83,1.9,4.59,4.07,5.84.05,0,.08.1,0,.14-1.4,1.17-15.43,12.69-28.4,17.19a.25.25,0,0,0,0,.47c3.77,1.62,15,.76,18.34-1.18a.08.08,0,0,1,.12.09c-.36,1.39-2.32,9.53.79,12.06l.17.12-4.17,3a1.06,1.06,0,0,0,.72,1.92l2.15-.22a6.22,6.22,0,0,0,3.69-1.74l.71-.7,6.06,4.52-.8,6.41a15.75,15.75,0,1,0,13,8.24l1.54-1a3.81,3.81,0,0,0,6.2-3.85l6.41-1.88a1,1,0,0,0,.73-1.22l0-.22a1,1,0,0,0-1-.82l-5.45,0a.1.1,0,0,1-.08-.05l-1.64-3.71L168.87,99l5.24,3.9a15.75,15.75,0,1,0,26.55,0ZM157,91.62l7.43-.13,1,1.83c-1.71.07-3.52.2-5.25.42-1.26.15-2.77-1.46-3.22-2A.09.09,0,0,1,157,91.62Zm-11.23,11.11c.63-1,4.22-7,4.68-9.09a.08.08,0,0,1,.14,0c2.41,2.79,7.47,4.4,7.86,4.52a0,0,0,0,0,.05,0l6.5-2,1.46,1.09-6.81,6.25A4.6,4.6,0,0,0,157,102.3c-3.93-.5-10,.38-11.16.55A.08.08,0,0,1,145.77,102.73Zm16.83,20.49a3.71,3.71,0,0,0-1.27.38L156.68,120a.08.08,0,0,1,0-.1l2.32-4.82a.09.09,0,0,1,.15,0l3.83,6ZM152.73,118l-3.19-2.38,6.1-5.6Zm0-8.22-4.95,4.55-5-3.7A57.65,57.65,0,0,0,152.76,109.79Zm-4,7.86,3.26,2.44-.39,1.07a1.46,1.46,0,0,0,.87,1.88l6.81,2.48.2.15a3.89,3.89,0,0,0-.09,2.41l-1.53,1a15.7,15.7,0,0,0-9.79-6.19Zm-1.06,8.45a12.49,12.49,0,0,1,7.44,4.71l-8.73,5.56Zm4.18,22.79a12.51,12.51,0,1,1-6.29-23L144,138.34a1.06,1.06,0,0,0,1.62,1l10.62-6.77A12.53,12.53,0,0,1,151.83,148.89ZM161.12,108a.09.09,0,0,1,0,0,6.68,6.68,0,0,0-.31-2.64l5.75-5.28-2.49,14.62Zm33,14a12.51,12.51,0,0,1-17.37-17.1l9.91,7.39a1.07,1.07,0,0,0,1.21,0,1,1,0,0,0,.28-.26,1.06,1.06,0,0,0-.22-1.48l-9.91-7.4A12.5,12.5,0,1,1,194.09,122Z"/><path d="M162.28,85.77l3.66.21a.64.64,0,0,0,.47-.17l9.05-8.49a.16.16,0,0,0-.11-.28l-3.55-.21a.94.94,0,0,0-.71.26l-8.93,8.37A.18.18,0,0,0,162.28,85.77Z"/><polygon points="114.37 139 108.58 142.52 103.09 138.04 104.83 144.91 99.19 148.67 106.06 149.4 108.06 156.2 110.57 149.78 117.44 150.23 112.13 145.53 114.37 139"/><polygon points="121.12 114.26 115.33 117.77 109.83 113.29 111.57 120.16 105.94 123.92 112.81 124.65 114.81 131.46 117.32 125.04 124.19 125.48 118.88 120.79 121.12 114.26"/><polygon points="94.13 127.53 96.37 121 90.58 124.52 85.09 120.04 86.83 126.91 81.2 130.67 88.06 131.4 90.07 138.21 92.57 131.79 99.45 132.23 94.13 127.53"/><path d="M45.79,215.44V184.77H58.55c5.49,0,9.06,4,9.06,9.32s-3.57,9.33-9.06,9.33H50.67v12Zm4.88-26.53v10.41h7.66c2.44,0,4.4-2.48,4.4-5.23s-2-5.18-4.4-5.18Z"/><path d="M92.23,209c1.57-.31,3.1-.61,4.62-.87.31,1.74,1.35,3.83,4.88,3.83.79,0,4.66-.3,4.66-3.09,0-5.27-13.5.17-13.5-9.28,0-3.75,3.74-6.58,8.45-6.58s8.71,2,9.37,6.88c-1.57.27-3.1.57-4.62.88-.31-2.75-2-3.75-4.62-3.75-2.31,0-3.88,1.22-3.88,2.57,0,1.79,1.66,2.26,4.27,2.53,5,.52,9.19,1.61,9.19,6.75,0,4.62-4,7.06-9.32,7.06-5.66,0-8.89-3-9.5-6.93"/><path d="M112.28,197V193.4h3.79V187h4.71v6.36h4.57V197h-4.57v12.5c0,1.74.52,2.27,2,2.27.65,0,2.09-.09,2.09-.09v3.79s-1.69.17-3.36.17c-4.14,0-5.49-2.22-5.49-6.44V197Z"/><path d="M141.74,203.16c0-3.36-.74-6.19-4.27-6.19-3.36,0-4.27,2.83-4.27,6.19v12.28h-4.71v-22h4.27l.44,2.39c.65-1.22,3.27-2.83,5.84-2.83a6.64,6.64,0,0,1,6.14,3.31c1.18-2,4-3.31,6.62-3.31,6,0,7.84,3.66,7.84,10.2v12.28H155V203.16c0-3.32-.91-6.23-4.27-6.23-3.53,0-4.27,2.83-4.27,6.23v12.28h-4.7Z"/><path d="M168.18,201c-1.52-.26-3.09-.61-4.66-.87.48-4.88,4.49-7.15,9.11-7.15,6.23,0,9.45,3,9.45,9.06v7.67c0,1.31.26,2.05,1.18,2.05a4,4,0,0,0,1.13-.18v3.84a10.08,10.08,0,0,1-2.79.35,3.63,3.63,0,0,1-3.83-3.14,9.16,9.16,0,0,1-6.88,3.27c-5.1,0-8.15-2.84-8.15-7,0-3.44,3.18-6.58,9-6.58h5.67V201c0-1.7-.7-4-4.75-4-2.7,0-4.36,1.35-4.45,4m9.2,5.92v-1.09h-5.19c-3.87,0-4.66,2-4.66,3.05,0,1.48,1,3,3.88,3,3.83,0,6-2.61,6-5"/><path d="M79.07,215.92a11.47,11.47,0,1,1,11.47-11.47,11.48,11.48,0,0,1-11.47,11.47m0-18.56a7.1,7.1,0,1,0,7.1,7.09,7.1,7.1,0,0,0-7.1-7.09"/><path d="M213.67,207.78c1.44.39,2.87.82,4.31,1.26-1,3.18-4,6.84-10,6.84s-10.37-4.66-10.37-11.46,4-11.46,10.15-11.46,9.94,4.1,9.94,10.76a17.11,17.11,0,0,1-.09,2.1H202.47c.09,3.22,2.31,6.09,5.49,6.09a5.79,5.79,0,0,0,5.71-4.13m-1-5.49c-.13-3.27-1.7-5.36-4.93-5.36s-4.92,2.61-5.05,5.36Z"/><path d="M219.72,209c1.57-.3,3.1-.61,4.62-.87.31,1.74,1.35,3.83,4.88,3.83.78,0,4.66-.3,4.66-3.09,0-5.27-13.5.18-13.5-9.28,0-3.74,3.74-6.58,8.45-6.58s8.71,2,9.36,6.89c-1.56.26-3.09.56-4.61.87-.31-2.75-2-3.75-4.62-3.75-2.31,0-3.88,1.22-3.88,2.57,0,1.79,1.66,2.27,4.27,2.53,5,.52,9.19,1.61,9.19,6.75,0,4.62-4,7.06-9.32,7.06-5.66,0-8.89-3-9.5-6.93"/><path d="M183.69,197V193.4h3.79V187h4.71v6.36h4.57V197h-4.57v12.5c0,1.74.52,2.27,2.05,2.27.65,0,2.09-.09,2.09-.09v3.79s-1.68.17-3.36.17c-4.13,0-5.49-2.22-5.49-6.44V197Z"/></svg>